# xmcd CD database file
#
# Track frame offsets:
#	150
#	19504
#	38045
#	47015
#	54867
#	67790
#	82959
#	86905
#	97816
#	109026
#	121787
#	130264
#	139832
#	142503
#	152622
#	160501
#	168649
#	177519
#	181330
#	189462
#
# Disc length: 2750 seconds
#
# Revision: 2
# Processed by: cddbd v1.5.1PL0 Copyright (c) Steve Scherf et al.
# Submitted via: CDex 1.51
#
DISCID=ef0abc14
DTITLE=Various Artist - おいしいうた・いただきまーす
DYEAR=2002
DGENRE=
TTITLE0=柴矢　裕美/おさかな天国
TTITLE1=子門　真人/およげ!たいやきくん
TTITLE2=速水けんたろう、茂森あゆみ/サラダでラップ
TTITLE3=速水けんたろう、茂森あゆみ/ポップンポップコーン
TTITLE4=速水　けんたろう/朝ゴハンパン・ロックンロール
TTITLE5=ペグモ/おべんとうばこのうた
TTITLE6=松熊　由紀/おべんとう
TTITLE7=のこいのこ/おなかがいっぱい
TTITLE8=ひばり児童合唱団/アイスクリームの歌
TTITLE9=松熊　由紀/とんでったバナナ
TTITLE10=速水けんたろう、茂森あゆみ/バナナのおやこ
TTITLE11=速水　けんたろう/やおやのおみせ
TTITLE12=松熊　由紀/トマト
TTITLE13=永井寛孝とおっぺれった/なっとうをおいしくたべるには
TTITLE14=ひばり児童合唱団/ドロップスのうた
TTITLE15=速水　けんたろう/やきいも グーチーパー
TTITLE16=速水　けんたろう/くいしんぼゴリラのうた
TTITLE17=ひばり児童合唱団/ふしぎなポケット
TTITLE18=大和田　りつ子/おなかのへるうた
TTITLE19=田原　俊彦/Ninjin娘
EXTD=YEAR: 2002
EXTT0=
EXTT1=
EXTT2=
EXTT3=
EXTT4=
EXTT5=
EXTT6=
EXTT7=
EXTT8=
EXTT9=
EXTT10=
EXTT11=
EXTT12=
EXTT13=
EXTT14=
EXTT15=
EXTT16=
EXTT17=
EXTT18=
EXTT19=
PLAYORDER=
